HIERARCHY
ROOT Hips
{
  OFFSET 0.449216 7.50655 172.46
  CHANNELS 6 Xposition Yposition Zposition Zrotation Xrotation Yrotation
  JOINT Spine
  {
    OFFSET -0.133107 17.534 -1.51384
    CHANNELS 6 Xposition Yposition Zposition Zrotation Xrotation Yrotation
    JOINT Spine1
    {
      OFFSET -0.0140236 22.6865 -0.221803
      CHANNELS 6 Xposition Yposition Zposition Zrotation Xrotation Yrotation
      JOINT Spine2
      {
        OFFSET 0.604095 27.2915 -1.22211
        CHANNELS 6 Xposition Yposition Zposition Zrotation Xrotation Yrotation
        JOINT Neck
        {
          OFFSET -0.54999 27.7711 0.379849
          CHANNELS 6 Xposition Yposition Zposition Zrotation Xrotation Yrotation
          JOINT Head
          {
            OFFSET -0.456515 18.6834 4.65447
            CHANNELS 6 Xposition Yposition Zposition Zrotation Xrotation Yrotation
            JOINT HeadTop_End
            {
              OFFSET 0.313645 35.2545 10.0781
              CHANNELS 6 Xposition Yposition Zposition Zrotation Xrotation Yrotation
              End Site
              {
                OFFSET 0 0 0
              }
            }
            JOINT RightEye
            {
              OFFSET -5.91139 13.8299 16.4589
              CHANNELS 6 Xposition Yposition Zposition Zrotation Xrotation Yrotation
              End Site
              {
                OFFSET 0 0 0
              }
            }
            JOINT LeftEye
            {
              OFFSET 5.75366 13.8511 16.9022
              CHANNELS 6 Xposition Yposition Zposition Zrotation Xrotation Yrotation
              End Site
              {
                OFFSET 0 0 0
              }
            }
          }
        }
        JOINT LeftShoulder
        {
          OFFSET 9.65809 17.1798 0.393621
          CHANNELS 6 Xposition Yposition Zposition Zrotation Xrotation Yrotation
          JOINT LeftArm
          {
            OFFSET 21.5048 0.579175 -2.73789
            CHANNELS 6 Xposition Yposition Zposition Zrotation Xrotation Yrotation
            JOINT LeftForeArm
            {
              OFFSET 52.3358 1.42958 2.41804
              CHANNELS 6 Xposition Yposition Zposition Zrotation Xrotation Yrotation
              JOINT LeftHand
              {
                OFFSET 41.8847 0.117838 6.21031
                CHANNELS 6 Xposition Yposition Zposition Zrotation Xrotation Yrotation
                JOINT LeftHandMiddle1
                {
                  OFFSET 22.8129 -1.60957 2.49076
                  CHANNELS 6 Xposition Yposition Zposition Zrotation Xrotation Yrotation
                  JOINT LeftHandMiddle2
                  {
                    OFFSET 6.02919 0.375492 0.441768
                    CHANNELS 6 Xposition Yposition Zposition Zrotation Xrotation Yrotation
                    JOINT LeftHandMiddle3
                    {
                      OFFSET 5.82062 -0.341841 0.444061
                      CHANNELS 6 Xposition Yposition Zposition Zrotation Xrotation Yrotation
                      End Site
                      {
                        OFFSET 5.24968 -0.18485 0.38643
                      }
                    }
                  }
                }
                JOINT LeftHandThumb1
                {
                  OFFSET 8.57333 -3.68257 5.90761
                  CHANNELS 6 Xposition Yposition Zposition Zrotation Xrotation Yrotation
                  JOINT LeftHandThumb2
                  {
                    OFFSET 7.05954 -3.92834 4.59012
                    CHANNELS 6 Xposition Yposition Zposition Zrotation Xrotation Yrotation
                    JOINT LeftHandThumb3
                    {
                      OFFSET 5.45408 -3.10462 3.4162
                      CHANNELS 6 Xposition Yposition Zposition Zrotation Xrotation Yrotation
                      End Site
                      {
                        OFFSET 2.52995 -1.26392 2.59339
                      }
                    }
                  }
                }
                JOINT LeftHandIndex1
                {
                  OFFSET 22.071 -2.18211 6.80559
                  CHANNELS 6 Xposition Yposition Zposition Zrotation Xrotation Yrotation
                  JOINT LeftHandIndex2
                  {
                    OFFSET 5.655 -0.454426 0.363402
                    CHANNELS 6 Xposition Yposition Zposition Zrotation Xrotation Yrotation
                    JOINT LeftHandIndex3
                    {
                      OFFSET 5.80873 0.138203 0.202517
                      CHANNELS 6 Xposition Yposition Zposition Zrotation Xrotation Yrotation
                      End Site
                      {
                        OFFSET 4.88522 0.115492 0.18966
                      }
                    }
                  }
                }
                JOINT LeftHandRing1
                {
                  OFFSET 22.2301 -1.58609 -1.07237
                  CHANNELS 6 Xposition Yposition Zposition Zrotation Xrotation Yrotation
                  JOINT LeftHandRing2
                  {
                    OFFSET 5.51571 -0.442342 0.085295
                    CHANNELS 6 Xposition Yposition Zposition Zrotation Xrotation Yrotation
                    JOINT LeftHandRing3
                    {
                      OFFSET 5.04027 0.123425 0.426335
                      CHANNELS 6 Xposition Yposition Zposition Zrotation Xrotation Yrotation
                      End Site
                      {
                        OFFSET 4.57391 -0.307134 0.320977
                      }
                    }
                  }
                }
                JOINT LeftHandPinky1
                {
                  OFFSET 20.5029 -2.14047 -5.05193
                  CHANNELS 6 Xposition Yposition Zposition Zrotation Xrotation Yrotation
                  JOINT LeftHandPinky2
                  {
                    OFFSET 5.3068 0.0720653 0.391791
                    CHANNELS 6 Xposition Yposition Zposition Zrotation Xrotation Yrotation
                    JOINT LeftHandPinky3
                    {
                      OFFSET 3.22103 -0.125043 0.129337
                      CHANNELS 6 Xposition Yposition Zposition Zrotation Xrotation Yrotation
                      End Site
                      {
                        OFFSET 3.42511 -0.0864245 0.168201
                      }
                    }
                  }
                }
              }
            }
          }
        }
        JOINT RightShoulder
        {
          OFFSET -10.1474 17.3477 0.39229
          CHANNELS 6 Xposition Yposition Zposition Zrotation Xrotation Yrotation
          JOINT RightArm
          {
            OFFSET -21.9154 0.397362 -3.70373
            CHANNELS 6 Xposition Yposition Zposition Zrotation Xrotation Yrotation
            JOINT RightForeArm
            {
              OFFSET -55.8193 -0.744656 -3.26491
              CHANNELS 6 Xposition Yposition Zposition Zrotation Xrotation Yrotation
              JOINT RightHand
              {
                OFFSET -41.5962 -0.0462463 3.11173
                CHANNELS 6 Xposition Yposition Zposition Zrotation Xrotation Yrotation
                JOINT RightHandMiddle1
                {
                  OFFSET -21.2144 -0.543111 2.08571
                  CHANNELS 6 Xposition Yposition Zposition Zrotation Xrotation Yrotation
                  JOINT RightHandMiddle2
                  {
                    OFFSET -5.60828 -0.0767494 0.0163055
                    CHANNELS 6 Xposition Yposition Zposition Zrotation Xrotation Yrotation
                    JOINT RightHandMiddle3
                    {
                      OFFSET -6.03974 -0.600176 0.0448581
                      CHANNELS 6 Xposition Yposition Zposition Zrotation Xrotation Yrotation
                      End Site
                      {
                        OFFSET -5.30842 0.128888 0.295933
                      }
                    }
                  }
                }
                JOINT RightHandThumb1
                {
                  OFFSET -7.4243 -3.08558 5.52562
                  CHANNELS 6 Xposition Yposition Zposition Zrotation Xrotation Yrotation
                  JOINT RightHandThumb2
                  {
                    OFFSET -6.19932 -3.17205 4.11568
                    CHANNELS 6 Xposition Yposition Zposition Zrotation Xrotation Yrotation
                    JOINT RightHandThumb3
                    {
                      OFFSET -6.03384 -3.32236 3.71941
                      CHANNELS 6 Xposition Yposition Zposition Zrotation Xrotation Yrotation
                      End Site
                      {
                        OFFSET -3.49886 -1.24417 2.62991
                      }
                    }
                  }
                }
                JOINT RightHandIndex1
                {
                  OFFSET -21.0474 -1.11099 6.52255
                  CHANNELS 6 Xposition Yposition Zposition Zrotation Xrotation Yrotation
                  JOINT RightHandIndex2
                  {
                    OFFSET -5.61113 -0.14381 0.0637072
                    CHANNELS 6 Xposition Yposition Zposition Zrotation Xrotation Yrotation
                    JOINT RightHandIndex3
                    {
                      OFFSET -5.30559 -0.260358 0.0323038
                      CHANNELS 6 Xposition Yposition Zposition Zrotation Xrotation Yrotation
                      End Site
                      {
                        OFFSET -4.6024 0.0126403 0.0555614
                      }
                    }
                  }
                }
                JOINT RightHandRing1
                {
                  OFFSET -20.0757 -0.465264 -1.40835
                  CHANNELS 6 Xposition Yposition Zposition Zrotation Xrotation Yrotation
                  JOINT RightHandRing2
                  {
                    OFFSET -5.8282 -0.0734202 -0.318555
                    CHANNELS 6 Xposition Yposition Zposition Zrotation Xrotation Yrotation
                    JOINT RightHandRing3
                    {
                      OFFSET -4.99779 -0.166056 -0.0436778
                      CHANNELS 6 Xposition Yposition Zposition Zrotation Xrotation Yrotation
                      End Site
                      {
                        OFFSET -4.35293 -0.433383 -0.20375
                      }
                    }
                  }
                }
                JOINT RightHandPinky1
                {
                  OFFSET -17.7764 -1.08587 -5.47918
                  CHANNELS 6 Xposition Yposition Zposition Zrotation Xrotation Yrotation
                  JOINT RightHandPinky2
                  {
                    OFFSET -5.49838 -0.332063 -0.19338
                    CHANNELS 6 Xposition Yposition Zposition Zrotation Xrotation Yrotation
                    JOINT RightHandPinky3
                    {
                      OFFSET -3.49521 -0.191658 -0.134369
                      CHANNELS 6 Xposition Yposition Zposition Zrotation Xrotation Yrotation
                      End Site
                      {
                        OFFSET -3.26448 0.319818 -0.150716
                      }
                    }
                  }
                }
              }
            }
          }
        }
      }
    }
  }
  JOINT LeftUpLeg
  {
    OFFSET 17.4827 -12.2367 2.28338
    CHANNELS 6 Xposition Yposition Zposition Zrotation Xrotation Yrotation
    JOINT LeftLeg
    {
      OFFSET -1.61737 -72.9647 -0.347304
      CHANNELS 6 Xposition Yposition Zposition Zrotation Xrotation Yrotation
      JOINT LeftFoot
      {
        OFFSET 2.3562 -75.684 -7.36344
        CHANNELS 6 Xposition Yposition Zposition Zrotation Xrotation Yrotation
        JOINT LeftToeBase
        {
          OFFSET -0.700171 -20.8856 20.1668
          CHANNELS 6 Xposition Yposition Zposition Zrotation Xrotation Yrotation
          End Site
          {
            OFFSET -1.58457 -0.622643 18.5196
          }
        }
      }
    }
  }
  JOINT RightUpLeg
  {
    OFFSET -17.2196 -12.7586 1.06758
    CHANNELS 6 Xposition Yposition Zposition Zrotation Xrotation Yrotation
    JOINT RightLeg
    {
      OFFSET 1.34775 -72.5188 -0.877096
      CHANNELS 6 Xposition Yposition Zposition Zrotation Xrotation Yrotation
      JOINT RightFoot
      {
        OFFSET -2.56317 -75.6207 -6.78856
        CHANNELS 6 Xposition Yposition Zposition Zrotation Xrotation Yrotation
        JOINT RightToeBase
        {
          OFFSET -0.247822 -21.0622 19.3232
          CHANNELS 6 Xposition Yposition Zposition Zrotation Xrotation Yrotation
          End Site
          {
            OFFSET -0.0898787 -0.551318 19.0079
          }
        }
      }
    }
  }
}
MOTION
Frames:	4
Frame Time:	0.0416667
12.9929 -7.45316 173.183 115.931 77.0128 -0.914963 -0.133107 17.534 -1.51384 7.06822 -4.02318 8.61552 -0.0140236 22.6865 -0.221803 -2.3273 2.97256 1.22507 0.604095 27.2915 -1.22211 -2.27021 3.02096 1.2109 -0.54999 27.7711 0.379849 3.27366 5.59166 4.73127 -0.456515 18.6834 4.65447 -6.70416 10.9968 31.976 0.313645 35.2545 10.0781 5.86222e-032 1.59028e-015 -2.11209e-015 -5.91139 13.8299 16.4589 5.86222e-032 1.59028e-015 -2.11209e-015 5.75366 13.8511 16.9022 5.86222e-032 1.59028e-015 -2.11209e-015 9.65809 17.1798 0.393621 -5.29891 5.5039 -11.0736 21.5048 0.579175 -2.73789 -54.5574 5.29169 31.1539 52.3358 1.42958 2.41804 1.40416 0.130047 -75.94 41.8847 0.117838 6.21031 50.9609 17.7818 -26.9605 22.8129 -1.60957 2.49076 5.75093 -0.711843 -3.40733 6.02919 0.375492 0.441768 6.22329 -0.451721 0.266812 5.82062 -0.341841 0.444061 -6.24313 0.46412 0.390041 8.57333 -3.68257 5.90761 2.04937 0.101909 8.50151 7.05954 -3.92834 4.59012 1.71187 4.06935 15.3995 5.45408 -3.10462 3.4162 -0.951503 7.56452 21.7862 22.071 -2.18211 6.80559 15.7064 -2.22577 -3.87036 5.655 -0.454426 0.363402 -5.9376 0.333474 -1.66162 5.80873 0.138203 0.202517 -2.94428 0.0812687 0.551972 22.2301 -1.58609 -1.07237 11.4749 -1.8505 -6.32862 5.51571 -0.442342 0.085295 -7.61929 0.220331 4.14269 5.04027 0.123425 0.426335 -2.11434 0.163554 -0.00632118 20.5029 -2.14047 -5.05193 4.87839 -0.701719 1.10559 5.3068 0.0720653 0.391791 -0.348172 0.0697692 -5.67614 3.22103 -0.125043 0.129337 -9.74933 0.355085 1.49903 -10.1474 17.3477 0.39229 -1.2315 1.7631 7.81375 -21.9154 0.397362 -3.70373 2.80191 -7.61013 70.9303 -55.8193 -0.744656 -3.26491 0.697556 -0.00974724 13.4343 -41.5962 -0.0462463 3.11173 6.67778 -6.71191 2.10311 -21.2144 -0.543111 2.08571 18.0697 1.36845 3.23368 -5.60828 -0.0767494 0.0163055 11.9616 -0.0431034 -2.17938 -6.03974 -0.600176 0.0448581 23.2907 -0.0326183 -4.62142 -7.4243 -3.08558 5.52562 -3.11289 0.0907502 -10.6629 -6.19932 -3.17205 4.11568 -2.3938 3.4507 -16.1543 -6.03384 -3.32236 3.71941 4.88103 4.87087 -13.8229 -21.0474 -1.11099 6.52255 11.8982 0.928062 3.50377 -5.61113 -0.14381 0.0637072 9.76554 0.0381833 -0.978955 -5.30559 -0.260358 0.0323038 13.6572 -0.0273037 -1.57416 -20.0757 -0.465264 -1.40835 25.1036 1.67627 5.53911 -5.8282 -0.0734202 -0.318555 22.6434 -1.62292 -5.07894 -4.99779 -0.166056 -0.0436778 19.3692 -0.579764 -0.423656 -17.7764 -1.08587 -5.47918 28.1516 1.64788 3.65582 -5.49838 -0.332063 -0.19338 29.4737 -1.68147 -2.90041 -3.49521 -0.191658 -0.134369 37.3621 -2.47561 -2.27219 17.4827 -12.2367 2.28338 -5.39664 0.646821 4.45639 -1.61737 -72.9647 -0.347304 -0.144872 34.3057 -4.02647 2.3562 -75.684 -7.36344 8.23718 -21.6778 0.344422 -0.700171 -20.8856 20.1668 -1.72051e-006 -3.36048e-005 -1.01118e-015 -17.2196 -12.7586 1.06758 -3.31991 -6.30456 -10.7438 1.34775 -72.5188 -0.877096 -9.98244 37.8834 15.5108 -2.56317 -75.6207 -6.78856 4.02823 -19.7015 8.95704 -0.247822 -21.0622 19.3232 -4.65407e-009 -4.53055 2.86815e-006 
12.2975 -8.72921 173.229 126.329 78.5025 -3.76535 -0.133107 17.534 -1.51384 8.30522 -2.3144 4.90357 -0.0140236 22.6865 -0.221803 -2.32255 2.82154 0.752795 0.604095 27.2915 -1.22211 -2.29224 2.85356 0.724427 -0.54999 27.7711 0.379849 2.42055 3.8478 5.40262 -0.456515 18.6834 4.65447 -9.91075 8.09545 34.1065 0.313645 35.2545 10.0781 3.97569e-016 7.95139e-016 -1.78906e-015 -5.91139 13.8299 16.4589 3.97569e-016 7.95139e-016 -1.78906e-015 5.75366 13.8511 16.9022 3.97569e-016 7.95139e-016 -1.78906e-015 9.65809 17.1798 0.393621 -4.6728 5.86416 -12.365 21.5048 0.579175 -2.73789 -53.8739 5.6305 30.1935 52.3358 1.42958 2.41804 1.37668 0.0894988 -63.1759 41.8847 0.117838 6.21031 46.6693 16.1978 -24.0215 22.8129 -1.60957 2.49076 6.15705 -0.763449 -3.44508 6.02919 0.375492 0.441768 6.27686 -0.455894 0.26159 5.82062 -0.341841 0.444061 -6.12976 0.456117 0.377192 8.57333 -3.68257 5.90761 2.04937 0.101909 8.50151 7.05954 -3.92834 4.59012 1.71187 4.06935 15.3995 5.45408 -3.10462 3.4162 -0.951503 7.56452 21.7862 22.071 -2.18211 6.80559 16.1146 -2.28351 -3.89883 5.655 -0.454426 0.363402 -5.93761 0.333477 -1.66164 5.80873 0.138203 0.202517 -2.84134 0.0785192 0.54059 22.2301 -1.58609 -1.07237 11.8804 -1.90561 -6.36105 5.51571 -0.442342 0.085295 -7.45959 0.218804 4.12447 5.04027 0.123425 0.426335 -2.0228 0.156429 -0.0166856 20.5029 -2.14047 -5.05193 5.2872 -0.753091 1.06681 5.3068 0.0720653 0.391791 -0.144281 0.0403107 -5.69823 3.22103 -0.125043 0.129337 -9.64637 0.352445 1.48746 -10.1474 17.3477 0.39229 -2.26993 1.36472 6.00345 -21.9154 0.397362 -3.70373 -1.96319 -9.75614 68.5173 -55.8193 -0.744656 -3.26491 0.699941 -0.0265096 28.0808 -41.5962 -0.0462463 3.11173 5.91347 -8.73856 1.86664 -21.2144 -0.543111 2.08571 18.694 1.40603 3.14706 -5.60828 -0.0767494 0.0163055 12.2843 -0.0494507 -2.21577 -6.03974 -0.600176 0.0448581 23.4457 -0.0369366 -4.63874 -7.4243 -3.08558 5.52562 -3.11289 0.090748 -10.6629 -6.19932 -3.17205 4.11568 -2.3938 3.4507 -16.1543 -6.03384 -3.32236 3.71941 4.88103 4.87087 -13.8229 -21.0474 -1.11099 6.52255 12.4937 0.972641 3.42542 -5.61113 -0.14381 0.0637072 10.064 0.0364896 -1.01342 -5.30559 -0.260358 0.0323038 13.8065 -0.029666 -1.5912 -20.0757 -0.465264 -1.40835 25.7686 1.70463 5.44268 -5.8282 -0.0734202 -0.318555 22.9855 -1.65511 -5.10841 -4.99779 -0.166056 -0.0436778 19.5341 -0.586805 -0.441143 -17.7764 -1.08587 -5.47918 28.8535 1.67234 3.55264 -5.49838 -0.332063 -0.19338 29.8236 -1.71053 -2.93158 -3.49521 -0.191658 -0.134369 37.5369 -2.49269 -2.28527 17.4827 -12.2367 2.28338 -5.83462 -0.70515 4.5664 -1.61737 -72.9647 -0.347304 -2.09515 33.3884 4.25643 2.3562 -75.684 -7.36344 6.89192 -21.9046 0.0639961 -0.700171 -20.8856 20.1668 -4.67582e-007 -0.00267939 -1.70325e-005 -17.2196 -12.7586 1.06758 -3.00039 -8.29747 -10.2779 1.34775 -72.5188 -0.877096 -10.6271 38.3789 15.3031 -2.56317 -75.6207 -6.78856 3.89231 -19.8213 11.1014 -0.247822 -21.0622 19.3232 -3.64786e-006 -5.36486 1.47394e-005 
11.5513 -10.5508 173.456 135.908 79.7167 -5.67227 -0.133107 17.534 -1.51384 9.7394 -0.509378 1.08932 -0.0140236 22.6865 -0.221803 -2.11539 2.68525 0.270668 0.604095 27.2915 -1.22211 -2.10609 2.69611 0.227304 -0.54999 27.7711 0.379849 1.06735 1.46999 6.05911 -0.456515 18.6834 4.65447 -12.9584 4.96326 34.9145 0.313645 35.2545 10.0781 1.00003e-032 3.97569e-016 -1.44119e-015 -5.91139 13.8299 16.4589 1.00003e-032 3.97569e-016 -1.44119e-015 5.75366 13.8511 16.9022 1.00003e-032 3.97569e-016 -1.44119e-015 9.65809 17.1798 0.393621 -4.53222 6.31596 -13.6034 21.5048 0.579175 -2.73789 -51.948 5.9619 27.0864 52.3358 1.42958 2.41804 1.35541 0.0384359 -48.1163 41.8847 0.117838 6.21031 41.98 14.63 -23.9692 22.8129 -1.60957 2.49076 6.15599 -0.76327 -3.44505 6.02919 0.375492 0.441768 6.27673 -0.455885 0.261616 5.82062 -0.341841 0.444061 -6.13005 0.456143 0.37722 8.57333 -3.68257 5.90761 2.04937 0.101909 8.50151 7.05954 -3.92834 4.59012 1.71187 4.06935 15.3995 5.45408 -3.10462 3.4162 -0.951503 7.56452 21.7862 22.071 -2.18211 6.80559 16.1135 -2.28332 -3.89882 5.655 -0.454426 0.363402 -5.9376 0.333475 -1.66164 5.80873 0.138203 0.202517 -2.84161 0.0785301 0.540598 22.2301 -1.58609 -1.07237 11.8794 -1.90543 -6.36103 5.51571 -0.442342 0.085295 -7.46 0.218821 4.12451 5.04027 0.123425 0.426335 -2.02303 0.156449 -0.0166563 20.5029 -2.14047 -5.05193 5.28614 -0.752912 1.06685 5.3068 0.0720653 0.391791 -0.144815 0.0403994 -5.69822 3.22103 -0.125043 0.129337 -9.64663 0.352455 1.48749 -10.1474 17.3477 0.39229 -3.81677 0.91151 3.74415 -21.9154 0.397362 -3.70373 -6.0833 -12.3568 64.0773 -55.8193 -0.744656 -3.26491 0.708005 -0.044053 45.0024 -41.5962 -0.0462463 3.11173 3.89062 -11.1166 0.327729 -21.2144 -0.543111 2.08571 19.2016 1.43592 3.07636 -5.60828 -0.0767494 0.0163055 12.5467 -0.0547471 -2.24532 -6.03974 -0.600176 0.0448581 23.5718 -0.0404771 -4.6528 -7.4243 -3.08558 5.52562 -3.11289 0.0907495 -10.6629 -6.19932 -3.17205 4.11568 -2.3938 3.4507 -16.1543 -6.03384 -3.32236 3.71941 4.88103 4.87087 -13.8229 -21.0474 -1.11099 6.52255 12.9778 1.00832 3.36141 -5.61113 -0.14381 0.0637072 10.3067 0.0349867 -1.04141 -5.30559 -0.260358 0.0323038 13.9278 -0.0316243 -1.60506 -20.0757 -0.465264 -1.40835 26.3094 1.72692 5.36407 -5.8282 -0.0734202 -0.318555 23.2637 -1.6814 -5.13222 -4.99779 -0.166056 -0.0436778 19.6681 -0.592577 -0.455379 -17.7764 -1.08587 -5.47918 29.4241 1.69133 3.46852 -5.49838 -0.332063 -0.19338 30.1081 -1.73427 -2.95679 -3.49521 -0.191658 -0.134369 37.6791 -2.50658 -2.29587 17.4827 -12.2367 2.28338 -5.85315 -2.13278 4.58593 -1.61737 -72.9647 -0.347304 -3.01299 32.9308 6.96273 2.3562 -75.684 -7.36344 6.59993 -21.5783 -0.0363566 -0.700171 -20.8856 20.1668 -1.07256e-006 -0.0036079 -2.65631e-006 -17.2196 -12.7586 1.06758 -2.91858 -9.31394 -10.0965 1.34775 -72.5188 -0.877096 -10.5087 38.2925 15.3448 -2.56317 -75.6207 -6.78856 3.49512 -19.9558 8.81619 -0.247822 -21.0622 19.3232 2.21671e-006 -4.96937 7.2393e-006 
10.928 -12.7591 173.845 147.309 80.5927 -10.391 -0.133107 17.534 -1.51384 10.9854 1.50602 -1.86401 -0.0140236 22.6865 -0.221803 -1.95495 2.47171 -0.0914691 0.604095 27.2915 -1.22211 -1.95793 2.46524 -0.146488 -0.54999 27.7711 0.379849 -0.401074 -1.28382 6.61791 -0.456515 18.6834 4.65447 -15.5647 2.00722 34.9023 0.313645 35.2545 10.0781 1.59028e-015 7.95139e-016 4.96962e-016 -5.91139 13.8299 16.4589 1.59028e-015 7.95139e-016 4.96962e-016 5.75366 13.8511 16.9022 1.59028e-015 7.95139e-016 4.96962e-016 9.65809 17.1798 0.393621 -4.23317 6.67462 -14.7492 21.5048 0.579175 -2.73789 -49.6389 5.78242 21.2779 52.3358 1.42958 2.41804 1.34865 -0.0224994 -31.6421 41.8847 0.117838 6.21031 37.4173 14.2855 -27.3556 22.8129 -1.60957 2.49076 5.28484 -0.652807 -3.36373 6.02919 0.375492 0.441768 6.16187 -0.446951 0.272814 5.82062 -0.341841 0.444061 -6.37322 0.473288 0.404825 8.57333 -3.68257 5.90761 2.04937 0.101909 8.50151 7.05954 -3.92834 4.59012 1.71187 4.06935 15.3995 5.45408 -3.10462 3.4162 -0.951503 7.56452 21.7862 22.071 -2.18211 6.80559 15.238 -2.15965 -3.83739 5.655 -0.454426 0.363402 -5.93755 0.333472 -1.66163 5.80873 0.138203 0.202517 -3.06239 0.0844054 0.565077 22.2301 -1.58609 -1.07237 11.0095 -1.78741 -6.29113 5.51571 -0.442342 0.085295 -7.80254 0.222045 4.16358 5.04027 0.123425 0.426335 -2.21935 0.171711 0.0056008 20.5029 -2.14047 -5.05193 4.40921 -0.642974 1.15039 5.3068 0.0720653 0.391791 -0.582151 0.103519 -5.65068 3.22103 -0.125043 0.129337 -9.8675 0.358104 1.51231 -10.1474 17.3477 0.39229 -5.31497 0.517476 1.41459 -21.9154 0.397362 -3.70373 -8.4701 -15.1193 59.6628 -55.8193 -0.744656 -3.26491 0.72075 -0.0575557 61.6518 -41.5962 -0.0462463 3.11173 2.36184 -11.539 -2.63709 -21.2144 -0.543111 2.08571 19.0878 1.42929 3.09224 -5.60828 -0.0767494 0.0163055 12.4879 -0.0535472 -2.2387 -6.03974 -0.600176 0.0448581 23.5435 -0.0396845 -4.64965 -7.4243 -3.08558 5.52562 -3.11289 0.0907466 -10.6629 -6.19932 -3.17205 4.11568 -2.3938 3.4507 -16.1543 -6.03384 -3.32236 3.71941 4.88103 4.87087 -13.8229 -21.0474 -1.11099 6.52255 12.8693 1.00038 3.3758 -5.61113 -0.14381 0.0637072 10.2523 0.0353395 -1.03513 -5.30559 -0.260358 0.0323038 13.9006 -0.0311859 -1.60196 -20.0757 -0.465264 -1.40835 26.1882 1.72201 5.38173 -5.8282 -0.0734202 -0.318555 23.2013 -1.6755 -5.12691 -4.99779 -0.166056 -0.0436778 19.6381 -0.591279 -0.452184 -17.7764 -1.08587 -5.47918 29.2962 1.68717 3.48741 -5.49838 -0.332063 -0.19338 30.0443 -1.72892 -2.95114 -3.49521 -0.191658 -0.134369 37.6472 -2.50347 -2.29349 17.4827 -12.2367 2.28338 -6.24959 -3.51541 4.27288 -1.61737 -72.9647 -0.347304 -3.15722 32.4714 5.49765 2.3562 -75.684 -7.36344 7.03256 -20.4935 -0.0465663 -0.700171 -20.8856 20.1668 -1.40041e-008 -0.00157301 -5.97898e-006 -17.2196 -12.7586 1.06758 -3.49108 -9.91129 -10.1496 1.34775 -72.5188 -0.877096 -10.3208 38.0315 15.4633 -2.56317 -75.6207 -6.78856 3.19762 -20.0596 4.83826 -0.247822 -21.0622 19.3232 6.18513e-007 -4.25947 1.91584e-007 
